<svg width="226" height="28" viewBox="0 0 226 28" fill="none" xmlns="http://www.w3.org/2000/svg">
<path d="M22.4712 0.818181V27H17.1019L6.68288 11.8892H6.51669V27H0.188565V0.818181H5.63459L15.9386 15.9034H16.1559V0.818181H22.4712ZM51.1619 13.9091C51.1619 16.7898 50.608 19.2315 49.5 21.2344C48.392 23.2372 46.892 24.7585 45 25.7983C43.1165 26.8381 41.0028 27.358 38.6591 27.358C36.3068 27.358 34.1889 26.8338 32.3054 25.7855C30.4219 24.7372 28.9261 23.2159 27.8182 21.2216C26.7188 19.2187 26.169 16.7812 26.169 13.9091C26.169 11.0284 26.7188 8.58665 27.8182 6.58381C28.9261 4.58097 30.4219 3.05966 32.3054 2.01989C34.1889 0.980113 36.3068 0.460226 38.6591 0.460226C41.0028 0.460226 43.1165 0.980113 45 2.01989C46.892 3.05966 48.392 4.58097 49.5 6.58381C50.608 8.58665 51.1619 11.0284 51.1619 13.9091ZM44.6932 13.9091C44.6932 12.2045 44.4503 10.7642 43.9645 9.58807C43.4872 8.41193 42.7969 7.52131 41.8935 6.91619C40.9986 6.31108 39.9205 6.00852 38.6591 6.00852C37.4063 6.00852 36.3281 6.31108 35.4247 6.91619C34.5213 7.52131 33.8267 8.41193 33.3409 9.58807C32.8636 10.7642 32.625 12.2045 32.625 13.9091C32.625 15.6136 32.8636 17.054 33.3409 18.2301C33.8267 19.4062 34.5213 20.2969 35.4247 20.902C36.3281 21.5071 37.4063 21.8097 38.6591 21.8097C39.9205 21.8097 40.9986 21.5071 41.8935 20.902C42.7969 20.2969 43.4872 19.4062 43.9645 18.2301C44.4503 17.054 44.6932 15.6136 44.6932 13.9091ZM59.2543 0.818181L65.1094 19.9943H65.3267L71.1818 0.818181H78.2642L69.4304 27H61.0057L52.1719 0.818181H59.2543ZM82.8441 27H76.043L84.8768 0.818181H93.3015L102.135 27H95.3342L89.185 7.41477H88.9805L82.8441 27ZM81.9364 16.696H96.1523V21.5028H81.9364V16.696Z" fill="#3EC199"/>
<path d="M104.954 27V0.818181H115.872C117.832 0.818181 119.473 1.09517 120.794 1.64915C122.123 2.20312 123.12 2.97869 123.785 3.97585C124.458 4.97301 124.795 6.12784 124.795 7.44034C124.795 8.4375 124.586 9.32812 124.169 10.1122C123.751 10.8878 123.176 11.5312 122.443 12.0426C121.71 12.554 120.862 12.9119 119.899 13.1165V13.3722C120.956 13.4233 121.931 13.7088 122.826 14.2287C123.73 14.7486 124.454 15.473 125 16.402C125.545 17.3224 125.818 18.4134 125.818 19.6747C125.818 21.081 125.46 22.3381 124.744 23.446C124.028 24.5455 122.993 25.4148 121.637 26.054C120.282 26.6847 118.637 27 116.703 27H104.954ZM111.282 21.8991H115.194C116.566 21.8991 117.576 21.6392 118.224 21.1193C118.88 20.5994 119.208 19.875 119.208 18.946C119.208 18.2727 119.051 17.6932 118.735 17.2074C118.42 16.7131 117.973 16.3338 117.393 16.0696C116.814 15.7969 116.119 15.6605 115.309 15.6605H111.282V21.8991ZM111.282 11.5824H114.785C115.475 11.5824 116.089 11.4673 116.626 11.2372C117.163 11.0071 117.581 10.6747 117.879 10.2401C118.186 9.8054 118.339 9.28125 118.339 8.66761C118.339 7.78977 118.028 7.09943 117.406 6.59659C116.784 6.09375 115.944 5.84233 114.887 5.84233H111.282V11.5824ZM128.86 27V0.818181H139.676C141.636 0.818181 143.328 1.17187 144.751 1.87926C146.183 2.57812 147.287 3.58381 148.062 4.89631C148.838 6.20028 149.225 7.74716 149.225 9.53693C149.225 11.3523 148.829 12.8949 148.037 14.1648C147.244 15.4261 146.119 16.3892 144.662 17.054C143.204 17.7102 141.478 18.0384 139.484 18.0384H132.645V13.0526H138.308C139.262 13.0526 140.059 12.929 140.699 12.6818C141.346 12.4261 141.836 12.0426 142.169 11.5312C142.501 11.0114 142.667 10.3466 142.667 9.53693C142.667 8.72727 142.501 8.05824 142.169 7.52983C141.836 6.9929 141.346 6.59233 140.699 6.32812C140.051 6.0554 139.254 5.91903 138.308 5.91903H135.189V27H128.86ZM143.6 15.0341L150.12 27H143.217L136.825 15.0341H143.6ZM158.36 27H151.559L160.392 0.818181H168.817L177.651 27H170.85L164.701 7.41477H164.496L158.36 27ZM157.452 16.696H171.668V21.5028H157.452V16.696ZM176.344 5.95739V0.818181H198.473V5.95739H190.534V27H184.295V5.95739H176.344ZM225.08 13.9091C225.08 16.7898 224.526 19.2315 223.418 21.2344C222.31 23.2372 220.81 24.7585 218.918 25.7983C217.034 26.8381 214.921 27.358 212.577 27.358C210.225 27.358 208.107 26.8338 206.223 25.7855C204.34 24.7372 202.844 23.2159 201.736 21.2216C200.637 19.2187 200.087 16.7812 200.087 13.9091C200.087 11.0284 200.637 8.58665 201.736 6.58381C202.844 4.58097 204.34 3.05966 206.223 2.01989C208.107 0.980113 210.225 0.460226 212.577 0.460226C214.921 0.460226 217.034 0.980113 218.918 2.01989C220.81 3.05966 222.31 4.58097 223.418 6.58381C224.526 8.58665 225.08 11.0284 225.08 13.9091ZM218.611 13.9091C218.611 12.2045 218.368 10.7642 217.882 9.58807C217.405 8.41193 216.715 7.52131 215.811 6.91619C214.917 6.31108 213.838 6.00852 212.577 6.00852C211.324 6.00852 210.246 6.31108 209.343 6.91619C208.439 7.52131 207.745 8.41193 207.259 9.58807C206.782 10.7642 206.543 12.2045 206.543 13.9091C206.543 15.6136 206.782 17.054 207.259 18.2301C207.745 19.4062 208.439 20.2969 209.343 20.902C210.246 21.5071 211.324 21.8097 212.577 21.8097C213.838 21.8097 214.917 21.5071 215.811 20.902C216.715 20.2969 217.405 19.4062 217.882 18.2301C218.368 17.054 218.611 15.6136 218.611 13.9091Z" fill="white"/>
</svg>
