<svg width="1731" height="464" viewBox="0 0 1731 464" fill="none" xmlns="http://www.w3.org/2000/svg">
<circle cx="369.177" cy="183.919" r="17.1359" fill="#808080"/>
<circle cx="654.776" cy="183.919" r="17.1359" fill="#808080"/>
<circle cx="940.375" cy="183.919" r="17.1359" fill="#808080"/>
<circle cx="1225.97" cy="183.919" r="17.1359" fill="#808080"/>
<circle cx="1654.37" cy="115.375" r="17.1359" fill="#808080"/>
<circle cx="1654.37" cy="252.463" r="17.1359" fill="#808080"/>
<path d="M86.9704 429.373V446.827H82.7602V433.31H82.6579L78.7545 435.697V432.049L83.0585 429.373H86.9704Z" fill="white" fill-opacity="0.25"/>
<path d="M220.004 446.827V443.793L226.371 438.219C226.848 437.788 227.254 437.393 227.589 437.035C227.925 436.671 228.18 436.308 228.357 435.944C228.533 435.575 228.621 435.174 228.621 434.742C228.621 434.259 228.516 433.847 228.305 433.506C228.095 433.16 227.805 432.893 227.436 432.705C227.067 432.518 226.643 432.424 226.166 432.424C225.683 432.424 225.26 432.523 224.896 432.722C224.533 432.915 224.249 433.197 224.044 433.566C223.845 433.935 223.746 434.384 223.746 434.913H219.749C219.749 433.725 220.016 432.7 220.55 431.836C221.084 430.972 221.834 430.308 222.8 429.842C223.771 429.37 224.899 429.134 226.183 429.134C227.507 429.134 228.658 429.356 229.635 429.799C230.612 430.242 231.368 430.861 231.902 431.657C232.442 432.447 232.712 433.364 232.712 434.41C232.712 435.075 232.578 435.734 232.311 436.387C232.044 437.04 231.564 437.762 230.871 438.552C230.183 439.342 229.206 440.288 227.939 441.39L225.851 443.316V443.427H232.925V446.827H220.004Z" fill="white" fill-opacity="0.25"/>
<path d="M369.043 447.066C367.714 447.066 366.535 446.839 365.506 446.384C364.484 445.924 363.677 445.29 363.086 444.484C362.495 443.677 362.194 442.748 362.182 441.697H366.427C366.444 442.077 366.566 442.415 366.793 442.711C367.021 443.001 367.33 443.228 367.722 443.393C368.114 443.558 368.56 443.64 369.06 443.64C369.56 443.64 370.001 443.552 370.381 443.376C370.768 443.194 371.069 442.947 371.285 442.634C371.501 442.316 371.606 441.952 371.6 441.543C371.606 441.134 371.489 440.771 371.251 440.452C371.012 440.134 370.674 439.887 370.236 439.711C369.805 439.535 369.293 439.447 368.702 439.447H367.006V436.447H368.702C369.219 436.447 369.674 436.361 370.066 436.191C370.464 436.021 370.773 435.782 370.995 435.475C371.217 435.163 371.325 434.805 371.319 434.401C371.325 434.009 371.231 433.665 371.038 433.37C370.85 433.069 370.586 432.836 370.245 432.671C369.91 432.506 369.521 432.424 369.077 432.424C368.611 432.424 368.188 432.506 367.807 432.671C367.432 432.836 367.134 433.069 366.913 433.37C366.691 433.671 366.575 434.021 366.563 434.418H362.532C362.543 433.379 362.833 432.464 363.401 431.674C363.969 430.879 364.742 430.256 365.719 429.808C366.702 429.359 367.822 429.134 369.077 429.134C370.327 429.134 371.427 429.353 372.376 429.79C373.325 430.228 374.063 430.825 374.592 431.58C375.12 432.33 375.384 433.18 375.384 434.129C375.39 435.111 375.069 435.921 374.421 436.558C373.779 437.194 372.952 437.586 371.941 437.734V437.87C373.293 438.029 374.313 438.467 375.001 439.183C375.694 439.898 376.038 440.793 376.032 441.867C376.032 442.879 375.734 443.776 375.137 444.56C374.546 445.339 373.722 445.952 372.665 446.401C371.614 446.844 370.407 447.066 369.043 447.066Z" fill="white" fill-opacity="0.75"/>
<path d="M505.205 443.93V440.64L512.356 429.373H515.279V433.839H513.583L509.398 440.469V440.606H519.753V443.93H505.205ZM513.634 446.827V442.924L513.719 441.484V429.373H517.665V446.827H513.634Z" fill="white" fill-opacity="0.25"/>
<path d="M655.77 447.066C654.498 447.066 653.367 446.836 652.378 446.376C651.39 445.915 650.608 445.282 650.034 444.475C649.466 443.668 649.171 442.742 649.148 441.697H653.239C653.273 442.339 653.534 442.856 654.023 443.248C654.512 443.634 655.094 443.827 655.77 443.827C656.299 443.827 656.767 443.711 657.177 443.478C657.586 443.245 657.907 442.918 658.14 442.498C658.373 442.072 658.486 441.583 658.48 441.032C658.486 440.469 658.37 439.978 658.131 439.558C657.898 439.137 657.574 438.81 657.159 438.577C656.75 438.339 656.279 438.219 655.745 438.219C655.239 438.214 654.759 438.325 654.304 438.552C653.855 438.779 653.515 439.089 653.282 439.481L649.557 438.782L650.316 429.373H661.515V432.773H653.784L653.384 436.89H653.486C653.776 436.407 654.242 436.009 654.884 435.697C655.532 435.379 656.267 435.219 657.091 435.219C658.137 435.219 659.069 435.464 659.887 435.952C660.711 436.435 661.358 437.106 661.83 437.964C662.307 438.822 662.546 439.805 662.546 440.913C662.546 442.111 662.262 443.174 661.694 444.1C661.131 445.026 660.341 445.754 659.324 446.282C658.313 446.805 657.128 447.066 655.77 447.066Z" fill="white" fill-opacity="0.75"/>
<path d="M799.182 447.066C798.227 447.066 797.312 446.913 796.437 446.606C795.562 446.293 794.784 445.799 794.102 445.123C793.42 444.441 792.883 443.549 792.491 442.447C792.099 441.339 791.906 439.989 791.912 438.398C791.917 436.961 792.094 435.671 792.44 434.529C792.787 433.381 793.281 432.407 793.923 431.606C794.571 430.805 795.344 430.194 796.241 429.773C797.145 429.347 798.153 429.134 799.267 429.134C800.488 429.134 801.565 429.373 802.497 429.85C803.435 430.322 804.185 430.958 804.747 431.759C805.31 432.555 805.642 433.441 805.744 434.418H801.594C801.469 433.867 801.193 433.45 800.767 433.165C800.346 432.876 799.846 432.731 799.267 432.731C798.199 432.731 797.4 433.194 796.872 434.12C796.349 435.046 796.082 436.285 796.071 437.836H796.182C796.42 437.313 796.764 436.864 797.213 436.489C797.662 436.114 798.176 435.827 798.756 435.629C799.341 435.424 799.96 435.322 800.613 435.322C801.659 435.322 802.582 435.563 803.383 436.046C804.185 436.529 804.812 437.191 805.267 438.032C805.721 438.867 805.946 439.825 805.94 440.904C805.946 442.12 805.662 443.194 805.088 444.126C804.514 445.052 803.719 445.773 802.702 446.29C801.69 446.808 800.517 447.066 799.182 447.066ZM799.156 443.827C799.673 443.827 800.136 443.705 800.545 443.461C800.954 443.217 801.275 442.884 801.508 442.464C801.741 442.043 801.855 441.569 801.849 441.04C801.855 440.506 801.741 440.032 801.508 439.617C801.281 439.202 800.963 438.873 800.554 438.629C800.15 438.384 799.687 438.262 799.165 438.262C798.784 438.262 798.429 438.333 798.099 438.475C797.77 438.617 797.483 438.816 797.238 439.072C797 439.322 796.812 439.617 796.676 439.958C796.54 440.293 796.469 440.657 796.463 441.049C796.469 441.566 796.588 442.035 796.821 442.455C797.054 442.876 797.372 443.211 797.775 443.461C798.179 443.705 798.639 443.827 799.156 443.827Z" fill="white" fill-opacity="0.25"/>
<path d="M937.053 446.827L944.093 432.884V432.773H935.86V429.373H948.457V432.799L941.391 446.827H937.053Z" fill="white" fill-opacity="0.75"/>
<path d="M1085.53 447.066C1084.18 447.066 1082.96 446.85 1081.9 446.418C1080.83 445.981 1080 445.39 1079.39 444.646C1078.79 443.896 1078.49 443.049 1078.49 442.106C1078.49 441.384 1078.66 440.722 1079.01 440.12C1079.35 439.518 1079.82 439.018 1080.41 438.62C1081.01 438.217 1081.67 437.958 1082.41 437.844V437.708C1081.45 437.532 1080.66 437.086 1080.05 436.37C1079.44 435.654 1079.13 434.816 1079.13 433.856C1079.13 432.947 1079.41 432.137 1079.96 431.427C1080.52 430.717 1081.28 430.157 1082.24 429.748C1083.2 429.339 1084.3 429.134 1085.53 429.134C1086.77 429.134 1087.86 429.339 1088.82 429.748C1089.79 430.157 1090.55 430.717 1091.1 431.427C1091.66 432.137 1091.94 432.947 1091.94 433.856C1091.94 434.822 1091.63 435.663 1091.01 436.379C1090.39 437.089 1089.61 437.532 1088.66 437.708V437.844C1089.39 437.958 1090.05 438.217 1090.64 438.62C1091.24 439.018 1091.71 439.518 1092.05 440.12C1092.41 440.722 1092.58 441.384 1092.58 442.106C1092.58 443.049 1092.28 443.896 1091.67 444.646C1091.06 445.39 1090.23 445.981 1089.17 446.418C1088.11 446.85 1086.9 447.066 1085.53 447.066ZM1085.53 444.075C1086.05 444.075 1086.51 443.978 1086.9 443.785C1087.29 443.586 1087.6 443.31 1087.82 442.958C1088.05 442.606 1088.16 442.208 1088.16 441.765C1088.16 441.31 1088.05 440.907 1087.82 440.555C1087.59 440.202 1087.28 439.927 1086.88 439.728C1086.49 439.523 1086.04 439.421 1085.53 439.421C1085.03 439.421 1084.59 439.523 1084.19 439.728C1083.79 439.927 1083.48 440.202 1083.25 440.555C1083.02 440.907 1082.91 441.31 1082.91 441.765C1082.91 442.208 1083.02 442.606 1083.24 442.958C1083.47 443.305 1083.78 443.577 1084.17 443.776C1084.57 443.975 1085.02 444.075 1085.53 444.075ZM1085.53 436.447C1085.98 436.447 1086.37 436.356 1086.71 436.174C1087.06 435.992 1087.33 435.739 1087.52 435.415C1087.72 435.092 1087.82 434.725 1087.82 434.316C1087.82 433.907 1087.72 433.546 1087.52 433.234C1087.33 432.921 1087.06 432.677 1086.72 432.501C1086.38 432.319 1085.98 432.228 1085.53 432.228C1085.09 432.228 1084.7 432.319 1084.35 432.501C1084 432.677 1083.73 432.921 1083.54 433.234C1083.35 433.546 1083.25 433.907 1083.25 434.316C1083.25 434.725 1083.35 435.092 1083.54 435.415C1083.74 435.734 1084.01 435.986 1084.36 436.174C1084.71 436.356 1085.1 436.447 1085.53 436.447Z" fill="white" fill-opacity="0.25"/>
<path d="M1228.61 429.134C1229.56 429.134 1230.47 429.29 1231.34 429.603C1232.21 429.91 1232.99 430.401 1233.67 431.077C1234.35 431.748 1234.89 432.631 1235.28 433.728C1235.67 434.825 1235.87 436.163 1235.87 437.742C1235.87 439.197 1235.7 440.501 1235.36 441.654C1235.01 442.802 1234.51 443.779 1233.86 444.586C1233.22 445.393 1232.45 446.009 1231.55 446.435C1230.64 446.856 1229.63 447.066 1228.52 447.066C1227.29 447.066 1226.21 446.83 1225.27 446.359C1224.34 445.881 1223.59 445.239 1223.03 444.433C1222.48 443.626 1222.14 442.722 1222.04 441.722H1226.19C1226.32 442.302 1226.59 442.739 1227.01 443.035C1227.43 443.325 1227.94 443.469 1228.52 443.469C1229.59 443.469 1230.39 443.006 1230.92 442.08C1231.44 441.154 1231.71 439.896 1231.71 438.305H1231.61C1231.36 438.827 1231.02 439.276 1230.57 439.651C1230.12 440.026 1229.61 440.313 1229.02 440.512C1228.44 440.711 1227.82 440.81 1227.17 440.81C1226.13 440.81 1225.21 440.572 1224.4 440.094C1223.61 439.617 1222.98 438.961 1222.53 438.126C1222.08 437.29 1221.85 436.336 1221.85 435.262C1221.84 434.058 1222.12 432.995 1222.69 432.075C1223.26 431.148 1224.05 430.427 1225.07 429.91C1226.09 429.387 1227.27 429.129 1228.61 429.134ZM1228.63 432.373C1228.11 432.373 1227.64 432.495 1227.23 432.739C1226.83 432.984 1226.51 433.313 1226.28 433.728C1226.05 434.143 1225.93 434.609 1225.94 435.126C1225.94 435.643 1226.06 436.109 1226.29 436.523C1226.52 436.938 1226.84 437.268 1227.23 437.512C1227.64 437.756 1228.1 437.879 1228.61 437.879C1229 437.879 1229.36 437.808 1229.69 437.665C1230.02 437.523 1230.31 437.327 1230.55 437.077C1230.79 436.822 1230.98 436.526 1231.12 436.191C1231.26 435.856 1231.33 435.498 1231.33 435.117C1231.32 434.611 1231.2 434.151 1230.97 433.736C1230.73 433.322 1230.41 432.992 1230 432.748C1229.6 432.498 1229.14 432.373 1228.63 432.373Z" fill="white" fill-opacity="0.75"/>
<path d="M1366.99 429.373V446.827H1362.78V433.31H1362.68L1358.78 435.697V432.049L1363.08 429.373H1366.99ZM1378.07 447.254C1376.55 447.254 1375.23 446.893 1374.13 446.171C1373.03 445.444 1372.18 444.401 1371.58 443.043C1370.99 441.68 1370.69 440.04 1370.7 438.126C1370.7 436.211 1371 434.586 1371.59 433.251C1372.19 431.91 1373.03 430.89 1374.13 430.191C1375.23 429.486 1376.55 429.134 1378.07 429.134C1379.59 429.134 1380.9 429.486 1382.01 430.191C1383.11 430.89 1383.97 431.91 1384.56 433.251C1385.16 434.592 1385.46 436.217 1385.45 438.126C1385.45 440.046 1385.15 441.688 1384.55 443.052C1383.96 444.415 1383.11 445.458 1382.01 446.18C1380.91 446.896 1379.6 447.254 1378.07 447.254ZM1378.07 443.802C1378.98 443.802 1379.71 443.339 1380.28 442.413C1380.84 441.481 1381.12 440.052 1381.11 438.126C1381.11 436.864 1380.98 435.825 1380.73 435.006C1380.47 434.183 1380.12 433.569 1379.66 433.165C1379.21 432.762 1378.68 432.56 1378.07 432.56C1377.17 432.56 1376.44 433.018 1375.88 433.933C1375.32 434.842 1375.04 436.239 1375.03 438.126C1375.03 439.404 1375.15 440.464 1375.4 441.305C1375.66 442.146 1376.01 442.773 1376.48 443.188C1376.94 443.597 1377.47 443.802 1378.07 443.802Z" fill="white" fill-opacity="0.25"/>
<path d="M1512.82 429.373V446.827H1508.61V433.31H1508.51L1504.6 435.697V432.049L1508.91 429.373H1512.82ZM1524.75 429.373V446.827H1520.54V433.31H1520.44L1516.53 435.697V432.049L1520.84 429.373H1524.75Z" fill="white" fill-opacity="0.25"/>
<path d="M1654.41 429.373V446.827H1650.2V433.31H1650.1L1646.2 435.697V432.049L1650.5 429.373H1654.41ZM1658.27 446.827V443.793L1664.64 438.219C1665.12 437.788 1665.52 437.393 1665.86 437.035C1666.19 436.671 1666.45 436.308 1666.62 435.944C1666.8 435.575 1666.89 435.174 1666.89 434.742C1666.89 434.259 1666.78 433.847 1666.57 433.506C1666.36 433.16 1666.07 432.893 1665.7 432.705C1665.34 432.518 1664.91 432.424 1664.43 432.424C1663.95 432.424 1663.53 432.523 1663.16 432.722C1662.8 432.915 1662.52 433.197 1662.31 433.566C1662.11 433.935 1662.01 434.384 1662.01 434.913H1658.02C1658.02 433.725 1658.28 432.7 1658.82 431.836C1659.35 430.972 1660.1 430.308 1661.07 429.842C1662.04 429.37 1663.17 429.134 1664.45 429.134C1665.78 429.134 1666.93 429.356 1667.9 429.799C1668.88 430.242 1669.64 430.861 1670.17 431.657C1670.71 432.447 1670.98 433.364 1670.98 434.41C1670.98 435.075 1670.85 435.734 1670.58 436.387C1670.31 437.04 1669.83 437.762 1669.14 438.552C1668.45 439.342 1667.47 440.288 1666.21 441.39L1664.12 443.316V443.427H1671.19V446.827H1658.27Z" fill="white" fill-opacity="0.75"/>
<line x1="8.42322" y1="0.375488" x2="8.42322" y2="379.054" stroke="#BFBFBF" stroke-width="15"/>
<path d="M151.907 375.983L151.907 3.44609" stroke="#808080" stroke-width="6" stroke-linecap="round"/>
<path d="M294.706 375.983L294.706 3.44609" stroke="#808080" stroke-width="6" stroke-linecap="round"/>
<path d="M437.506 375.983L437.506 3.44609" stroke="#808080" stroke-width="6" stroke-linecap="round"/>
<path d="M580.305 375.983L580.305 3.44609" stroke="#808080" stroke-width="6" stroke-linecap="round"/>
<path d="M723.105 375.983L723.105 3.44609" stroke="#808080" stroke-width="6" stroke-linecap="round"/>
<path d="M865.904 375.983L865.904 3.44609" stroke="#808080" stroke-width="6" stroke-linecap="round"/>
<path d="M1008.7 375.983L1008.7 3.44609" stroke="#808080" stroke-width="6" stroke-linecap="round"/>
<path d="M1151.5 375.983L1151.5 3.44609" stroke="#808080" stroke-width="6" stroke-linecap="round"/>
<path d="M1294.3 375.983L1294.3 3.44609" stroke="#808080" stroke-width="6" stroke-linecap="round"/>
<path d="M1437.1 375.983L1437.1 3.44609" stroke="#808080" stroke-width="6" stroke-linecap="round"/>
<path d="M1579.9 375.983L1579.9 3.44609" stroke="#808080" stroke-width="6" stroke-linecap="round"/>
</svg>
