<svg width="3450" height="464" viewBox="0 0 3450 464" fill="none" xmlns="http://www.w3.org/2000/svg">
<circle cx="369.177" cy="183.837" r="17.1359" fill="#808080"/>
<circle cx="654.776" cy="183.837" r="17.1359" fill="#808080"/>
<circle cx="940.375" cy="183.837" r="17.1359" fill="#808080"/>
<circle cx="1225.97" cy="183.837" r="17.1359" fill="#808080"/>
<circle cx="1654.37" cy="115.294" r="17.1359" fill="#808080"/>
<circle cx="1654.37" cy="252.381" r="17.1359" fill="#808080"/>
<circle cx="2082.78" cy="183.837" r="17.1359" fill="#808080"/>
<circle cx="2368.38" cy="183.837" r="17.1359" fill="#808080"/>
<circle cx="2653.98" cy="183.837" r="17.1359" fill="#808080"/>
<circle cx="2939.58" cy="183.837" r="17.1359" fill="#808080"/>
<circle cx="3367.98" cy="115.294" r="17.1359" fill="#808080"/>
<circle cx="3367.98" cy="252.381" r="17.1359" fill="#808080"/>
<path d="M86.9704 429.291V446.745H82.7602V433.228H82.6579L78.7545 435.615V431.967L83.0585 429.291H86.9704Z" fill="white" fill-opacity="0.25"/>
<path d="M220.004 446.745V443.711L226.371 438.137C226.848 437.706 227.254 437.311 227.589 436.953C227.925 436.589 228.18 436.225 228.357 435.862C228.533 435.493 228.621 435.092 228.621 434.66C228.621 434.177 228.516 433.765 228.305 433.424C228.095 433.078 227.805 432.811 227.436 432.623C227.067 432.436 226.643 432.342 226.166 432.342C225.683 432.342 225.26 432.441 224.896 432.64C224.533 432.833 224.249 433.115 224.044 433.484C223.845 433.853 223.746 434.302 223.746 434.831H219.749C219.749 433.643 220.016 432.618 220.55 431.754C221.084 430.89 221.834 430.225 222.8 429.76C223.771 429.288 224.899 429.052 226.183 429.052C227.507 429.052 228.658 429.274 229.635 429.717C230.612 430.16 231.368 430.779 231.902 431.575C232.442 432.365 232.712 433.282 232.712 434.328C232.712 434.993 232.578 435.652 232.311 436.305C232.044 436.958 231.564 437.68 230.871 438.47C230.183 439.26 229.206 440.206 227.939 441.308L225.851 443.234V443.345H232.925V446.745H220.004Z" fill="white" fill-opacity="0.25"/>
<path d="M369.043 446.984C367.714 446.984 366.535 446.757 365.506 446.302C364.484 445.842 363.677 445.208 363.086 444.402C362.495 443.595 362.194 442.666 362.182 441.615H366.427C366.444 441.995 366.566 442.333 366.793 442.629C367.021 442.919 367.33 443.146 367.722 443.311C368.114 443.475 368.56 443.558 369.06 443.558C369.56 443.558 370.001 443.47 370.381 443.294C370.768 443.112 371.069 442.865 371.285 442.552C371.501 442.234 371.606 441.87 371.6 441.461C371.606 441.052 371.489 440.689 371.251 440.37C371.012 440.052 370.674 439.805 370.236 439.629C369.805 439.453 369.293 439.365 368.702 439.365H367.006V436.365H368.702C369.219 436.365 369.674 436.279 370.066 436.109C370.464 435.939 370.773 435.7 370.995 435.393C371.217 435.081 371.325 434.723 371.319 434.319C371.325 433.927 371.231 433.583 371.038 433.288C370.85 432.987 370.586 432.754 370.245 432.589C369.91 432.424 369.521 432.342 369.077 432.342C368.611 432.342 368.188 432.424 367.807 432.589C367.432 432.754 367.134 432.987 366.913 433.288C366.691 433.589 366.575 433.939 366.563 434.336H362.532C362.543 433.296 362.833 432.382 363.401 431.592C363.969 430.796 364.742 430.174 365.719 429.725C366.702 429.277 367.822 429.052 369.077 429.052C370.327 429.052 371.427 429.271 372.376 429.708C373.325 430.146 374.063 430.743 374.592 431.498C375.12 432.248 375.384 433.098 375.384 434.046C375.39 435.029 375.069 435.839 374.421 436.475C373.779 437.112 372.952 437.504 371.941 437.652V437.788C373.293 437.947 374.313 438.385 375.001 439.1C375.694 439.816 376.038 440.711 376.032 441.785C376.032 442.796 375.734 443.694 375.137 444.478C374.546 445.257 373.722 445.87 372.665 446.319C371.614 446.762 370.407 446.984 369.043 446.984Z" fill="white" fill-opacity="0.75"/>
<path d="M505.205 443.848V440.558L512.356 429.291H515.279V433.757H513.583L509.398 440.387V440.524H519.753V443.848H505.205ZM513.634 446.745V442.842L513.719 441.402V429.291H517.665V446.745H513.634Z" fill="white" fill-opacity="0.25"/>
<path d="M655.77 446.984C654.497 446.984 653.367 446.754 652.378 446.294C651.39 445.833 650.608 445.2 650.034 444.393C649.466 443.586 649.171 442.66 649.148 441.615H653.239C653.273 442.257 653.534 442.774 654.023 443.166C654.512 443.552 655.094 443.745 655.77 443.745C656.299 443.745 656.767 443.629 657.176 443.396C657.586 443.163 657.907 442.836 658.14 442.416C658.372 441.99 658.486 441.501 658.48 440.95C658.486 440.387 658.37 439.896 658.131 439.475C657.898 439.055 657.574 438.728 657.159 438.495C656.75 438.257 656.279 438.137 655.745 438.137C655.239 438.132 654.759 438.243 654.304 438.47C653.855 438.697 653.515 439.007 653.282 439.399L649.557 438.7L650.316 429.291H661.515V432.691H653.784L653.384 436.808H653.486C653.776 436.325 654.242 435.927 654.884 435.615C655.532 435.296 656.267 435.137 657.091 435.137C658.137 435.137 659.068 435.382 659.887 435.87C660.711 436.353 661.358 437.024 661.83 437.882C662.307 438.74 662.546 439.723 662.546 440.831C662.546 442.029 662.262 443.092 661.693 444.018C661.131 444.944 660.341 445.671 659.324 446.2C658.313 446.723 657.128 446.984 655.77 446.984Z" fill="white" fill-opacity="0.75"/>
<path d="M799.182 446.984C798.227 446.984 797.312 446.831 796.437 446.524C795.562 446.211 794.784 445.717 794.102 445.041C793.42 444.359 792.883 443.467 792.491 442.365C792.099 441.257 791.906 439.907 791.912 438.316C791.918 436.879 792.094 435.589 792.44 434.447C792.787 433.299 793.281 432.325 793.923 431.524C794.571 430.723 795.344 430.112 796.241 429.691C797.145 429.265 798.153 429.052 799.267 429.052C800.489 429.052 801.565 429.291 802.497 429.768C803.435 430.24 804.185 430.876 804.747 431.677C805.31 432.473 805.642 433.359 805.744 434.336H801.594C801.469 433.785 801.193 433.368 800.767 433.083C800.347 432.794 799.847 432.649 799.267 432.649C798.199 432.649 797.4 433.112 796.872 434.038C796.349 434.964 796.082 436.203 796.071 437.754H796.182C796.42 437.231 796.764 436.782 797.213 436.407C797.662 436.032 798.176 435.745 798.756 435.546C799.341 435.342 799.96 435.24 800.614 435.24C801.659 435.24 802.582 435.481 803.383 435.964C804.185 436.447 804.812 437.109 805.267 437.95C805.722 438.785 805.946 439.743 805.94 440.822C805.946 442.038 805.662 443.112 805.088 444.044C804.514 444.97 803.719 445.691 802.702 446.208C801.69 446.725 800.517 446.984 799.182 446.984ZM799.156 443.745C799.673 443.745 800.136 443.623 800.545 443.379C800.954 443.135 801.275 442.802 801.508 442.382C801.741 441.961 801.855 441.487 801.849 440.958C801.855 440.424 801.741 439.95 801.508 439.535C801.281 439.12 800.963 438.791 800.554 438.546C800.15 438.302 799.687 438.18 799.165 438.18C798.784 438.18 798.429 438.251 798.099 438.393C797.77 438.535 797.483 438.734 797.239 438.99C797 439.24 796.812 439.535 796.676 439.876C796.54 440.211 796.469 440.575 796.463 440.967C796.469 441.484 796.588 441.953 796.821 442.373C797.054 442.794 797.372 443.129 797.775 443.379C798.179 443.623 798.639 443.745 799.156 443.745Z" fill="white" fill-opacity="0.25"/>
<path d="M937.053 446.745L944.093 432.802V432.691H935.86V429.291H948.457V432.717L941.391 446.745H937.053Z" fill="white" fill-opacity="0.75"/>
<path d="M1085.53 446.984C1084.18 446.984 1082.96 446.768 1081.9 446.336C1080.83 445.899 1080 445.308 1079.39 444.564C1078.79 443.814 1078.49 442.967 1078.49 442.024C1078.49 441.302 1078.66 440.64 1079.01 440.038C1079.35 439.436 1079.82 438.936 1080.41 438.538C1081.01 438.135 1081.67 437.876 1082.41 437.762V437.626C1081.45 437.45 1080.66 437.004 1080.05 436.288C1079.44 435.572 1079.13 434.734 1079.13 433.774C1079.13 432.865 1079.41 432.055 1079.96 431.345C1080.52 430.635 1081.28 430.075 1082.24 429.666C1083.2 429.257 1084.3 429.052 1085.53 429.052C1086.77 429.052 1087.86 429.257 1088.82 429.666C1089.79 430.075 1090.55 430.635 1091.1 431.345C1091.66 432.055 1091.94 432.865 1091.94 433.774C1091.94 434.74 1091.63 435.581 1091.01 436.296C1090.39 437.007 1089.61 437.45 1088.66 437.626V437.762C1089.39 437.876 1090.05 438.135 1090.64 438.538C1091.24 438.936 1091.71 439.436 1092.05 440.038C1092.41 440.64 1092.58 441.302 1092.58 442.024C1092.58 442.967 1092.28 443.814 1091.67 444.564C1091.06 445.308 1090.23 445.899 1089.17 446.336C1088.11 446.768 1086.9 446.984 1085.53 446.984ZM1085.53 443.993C1086.05 443.993 1086.51 443.896 1086.9 443.703C1087.29 443.504 1087.6 443.228 1087.82 442.876C1088.05 442.524 1088.16 442.126 1088.16 441.683C1088.16 441.228 1088.05 440.825 1087.82 440.473C1087.59 440.12 1087.28 439.845 1086.88 439.646C1086.49 439.441 1086.04 439.339 1085.53 439.339C1085.03 439.339 1084.59 439.441 1084.19 439.646C1083.79 439.845 1083.48 440.12 1083.25 440.473C1083.02 440.825 1082.91 441.228 1082.91 441.683C1082.91 442.126 1083.02 442.524 1083.24 442.876C1083.47 443.223 1083.78 443.495 1084.17 443.694C1084.57 443.893 1085.02 443.993 1085.53 443.993ZM1085.53 436.365C1085.98 436.365 1086.37 436.274 1086.71 436.092C1087.06 435.91 1087.33 435.657 1087.52 435.333C1087.72 435.01 1087.82 434.643 1087.82 434.234C1087.82 433.825 1087.72 433.464 1087.52 433.152C1087.33 432.839 1087.06 432.595 1086.72 432.419C1086.38 432.237 1085.98 432.146 1085.53 432.146C1085.09 432.146 1084.7 432.237 1084.35 432.419C1084 432.595 1083.73 432.839 1083.54 433.152C1083.35 433.464 1083.25 433.825 1083.25 434.234C1083.25 434.643 1083.35 435.01 1083.54 435.333C1083.74 435.652 1084.01 435.904 1084.36 436.092C1084.71 436.274 1085.1 436.365 1085.53 436.365Z" fill="white" fill-opacity="0.25"/>
<path d="M1228.61 429.052C1229.56 429.052 1230.47 429.208 1231.34 429.521C1232.21 429.828 1232.99 430.319 1233.67 430.995C1234.35 431.666 1234.89 432.549 1235.28 433.646C1235.67 434.743 1235.87 436.081 1235.87 437.66C1235.87 439.115 1235.7 440.419 1235.36 441.572C1235.01 442.72 1234.51 443.697 1233.86 444.504C1233.22 445.311 1232.45 445.927 1231.55 446.353C1230.64 446.774 1229.63 446.984 1228.52 446.984C1227.29 446.984 1226.21 446.748 1225.27 446.277C1224.34 445.799 1223.59 445.157 1223.03 444.35C1222.48 443.544 1222.14 442.64 1222.04 441.64H1226.19C1226.32 442.22 1226.59 442.657 1227.01 442.953C1227.43 443.243 1227.94 443.387 1228.52 443.387C1229.59 443.387 1230.39 442.924 1230.92 441.998C1231.44 441.072 1231.71 439.814 1231.71 438.223H1231.61C1231.36 438.745 1231.02 439.194 1230.57 439.569C1230.12 439.944 1229.61 440.231 1229.02 440.43C1228.44 440.629 1227.82 440.728 1227.17 440.728C1226.13 440.728 1225.21 440.49 1224.4 440.012C1223.61 439.535 1222.98 438.879 1222.53 438.044C1222.08 437.208 1221.85 436.254 1221.85 435.18C1221.84 433.975 1222.12 432.913 1222.69 431.993C1223.26 431.066 1224.05 430.345 1225.07 429.828C1226.09 429.305 1227.27 429.046 1228.61 429.052ZM1228.63 432.291C1228.11 432.291 1227.64 432.413 1227.23 432.657C1226.83 432.902 1226.51 433.231 1226.28 433.646C1226.05 434.061 1225.93 434.527 1225.94 435.044C1225.94 435.561 1226.06 436.027 1226.29 436.441C1226.52 436.856 1226.84 437.186 1227.23 437.43C1227.64 437.674 1228.1 437.796 1228.61 437.796C1229 437.796 1229.36 437.725 1229.69 437.583C1230.02 437.441 1230.31 437.245 1230.55 436.995C1230.79 436.74 1230.98 436.444 1231.12 436.109C1231.26 435.774 1231.33 435.416 1231.32 435.035C1231.32 434.529 1231.2 434.069 1230.97 433.654C1230.73 433.24 1230.41 432.91 1230 432.666C1229.6 432.416 1229.14 432.291 1228.63 432.291Z" fill="white" fill-opacity="0.75"/>
<path d="M1366.99 429.291V446.745H1362.78V433.228H1362.68L1358.78 435.615V431.967L1363.08 429.291H1366.99ZM1378.07 447.171C1376.55 447.171 1375.23 446.811 1374.13 446.089C1373.03 445.362 1372.18 444.319 1371.58 442.961C1370.99 441.598 1370.69 439.958 1370.7 438.044C1370.7 436.129 1371 434.504 1371.59 433.169C1372.19 431.828 1373.03 430.808 1374.13 430.109C1375.23 429.404 1376.55 429.052 1378.07 429.052C1379.59 429.052 1380.9 429.404 1382.01 430.109C1383.11 430.808 1383.97 431.828 1384.56 433.169C1385.16 434.51 1385.46 436.135 1385.45 438.044C1385.45 439.964 1385.15 441.606 1384.55 442.97C1383.96 444.333 1383.11 445.376 1382.01 446.098C1380.91 446.814 1379.6 447.171 1378.07 447.171ZM1378.07 443.72C1378.98 443.72 1379.71 443.257 1380.28 442.331C1380.84 441.399 1381.12 439.97 1381.11 438.044C1381.11 436.782 1380.98 435.743 1380.73 434.924C1380.47 434.1 1380.12 433.487 1379.66 433.083C1379.21 432.68 1378.68 432.478 1378.07 432.478C1377.17 432.478 1376.44 432.936 1375.88 433.85C1375.32 434.76 1375.04 436.157 1375.03 438.044C1375.03 439.322 1375.15 440.382 1375.4 441.223C1375.66 442.064 1376.01 442.691 1376.48 443.106C1376.94 443.515 1377.47 443.72 1378.07 443.72Z" fill="white" fill-opacity="0.25"/>
<path d="M1512.82 429.291V446.745H1508.61V433.228H1508.51L1504.6 435.615V431.967L1508.91 429.291H1512.82ZM1524.75 429.291V446.745H1520.54V433.228H1520.44L1516.53 435.615V431.967L1520.84 429.291H1524.75Z" fill="white" fill-opacity="0.25"/>
<path d="M1654.41 429.291V446.745H1650.2V433.228H1650.1L1646.2 435.615V431.967L1650.5 429.291H1654.41ZM1658.27 446.745V443.711L1664.64 438.137C1665.12 437.706 1665.52 437.311 1665.86 436.953C1666.19 436.589 1666.45 436.225 1666.62 435.862C1666.8 435.493 1666.89 435.092 1666.89 434.66C1666.89 434.177 1666.78 433.765 1666.57 433.424C1666.36 433.078 1666.07 432.811 1665.7 432.623C1665.34 432.436 1664.91 432.342 1664.43 432.342C1663.95 432.342 1663.53 432.441 1663.16 432.64C1662.8 432.833 1662.52 433.115 1662.31 433.484C1662.11 433.853 1662.01 434.302 1662.01 434.831H1658.02C1658.02 433.643 1658.28 432.618 1658.82 431.754C1659.35 430.89 1660.1 430.225 1661.07 429.76C1662.04 429.288 1663.17 429.052 1664.45 429.052C1665.78 429.052 1666.93 429.274 1667.9 429.717C1668.88 430.16 1669.64 430.779 1670.17 431.575C1670.71 432.365 1670.98 433.282 1670.98 434.328C1670.98 434.993 1670.85 435.652 1670.58 436.305C1670.31 436.958 1669.83 437.68 1669.14 438.47C1668.45 439.26 1667.47 440.206 1666.21 441.308L1664.12 443.234V443.345H1671.19V446.745H1658.27Z" fill="white" fill-opacity="0.75"/>
<path d="M1797.36 429.291V446.745H1793.14V433.228H1793.04L1789.14 435.615V431.967L1793.44 429.291H1797.36ZM1807.85 446.984C1806.52 446.984 1805.34 446.757 1804.32 446.302C1803.29 445.842 1802.49 445.208 1801.9 444.402C1801.3 443.595 1801 442.666 1800.99 441.615H1805.24C1805.25 441.995 1805.38 442.333 1805.6 442.629C1805.83 442.919 1806.14 443.146 1806.53 443.311C1806.92 443.475 1807.37 443.558 1807.87 443.558C1808.37 443.558 1808.81 443.47 1809.19 443.294C1809.58 443.112 1809.88 442.865 1810.09 442.552C1810.31 442.234 1810.42 441.87 1810.41 441.461C1810.42 441.052 1810.3 440.689 1810.06 440.37C1809.82 440.052 1809.48 439.805 1809.05 439.629C1808.61 439.453 1808.1 439.365 1807.51 439.365H1805.82V436.365H1807.51C1808.03 436.365 1808.48 436.279 1808.88 436.109C1809.27 435.939 1809.58 435.7 1809.8 435.393C1810.03 435.081 1810.13 434.723 1810.13 434.319C1810.13 433.927 1810.04 433.583 1809.85 433.288C1809.66 432.987 1809.4 432.754 1809.05 432.589C1808.72 432.424 1808.33 432.342 1807.89 432.342C1807.42 432.342 1807 432.424 1806.62 432.589C1806.24 432.754 1805.94 432.987 1805.72 433.288C1805.5 433.589 1805.38 433.939 1805.37 434.336H1801.34C1801.35 433.296 1801.64 432.382 1802.21 431.592C1802.78 430.796 1803.55 430.174 1804.53 429.725C1805.51 429.277 1806.63 429.052 1807.89 429.052C1809.14 429.052 1810.24 429.271 1811.19 429.708C1812.13 430.146 1812.87 430.743 1813.4 431.498C1813.93 432.248 1814.19 433.098 1814.19 434.046C1814.2 435.029 1813.88 435.839 1813.23 436.475C1812.59 437.112 1811.76 437.504 1810.75 437.652V437.788C1812.1 437.947 1813.12 438.385 1813.81 439.1C1814.5 439.816 1814.85 440.711 1814.84 441.785C1814.84 442.796 1814.54 443.694 1813.95 444.478C1813.36 445.257 1812.53 445.87 1811.48 446.319C1810.42 446.762 1809.22 446.984 1807.85 446.984Z" fill="white" fill-opacity="0.25"/>
<path d="M1940.38 429.291V446.745H1936.17V433.228H1936.06L1932.16 435.615V431.967L1936.46 429.291H1940.38ZM1944.02 443.848V440.558L1951.17 429.291H1954.1V433.757H1952.4L1948.21 440.387V440.524H1958.57V443.848H1944.02ZM1952.45 446.745V442.842L1952.54 441.402V429.291H1956.48V446.745H1952.45Z" fill="white" fill-opacity="0.25"/>
<path d="M2084.05 429.291V446.745H2079.84V433.228H2079.74L2075.84 435.615V431.967L2080.14 429.291H2084.05ZM2094.59 446.984C2093.32 446.984 2092.19 446.754 2091.2 446.294C2090.21 445.833 2089.43 445.2 2088.86 444.393C2088.29 443.586 2087.99 442.66 2087.97 441.615H2092.06C2092.1 442.257 2092.36 442.774 2092.85 443.166C2093.33 443.552 2093.92 443.745 2094.59 443.745C2095.12 443.745 2095.59 443.629 2096 443.396C2096.41 443.163 2096.73 442.836 2096.96 442.416C2097.2 441.99 2097.31 441.501 2097.3 440.95C2097.31 440.387 2097.19 439.896 2096.95 439.475C2096.72 439.055 2096.4 438.728 2095.98 438.495C2095.57 438.257 2095.1 438.137 2094.57 438.137C2094.06 438.132 2093.58 438.243 2093.13 438.47C2092.68 438.697 2092.34 439.007 2092.1 439.399L2088.38 438.7L2089.14 429.291H2100.34V432.691H2092.61L2092.21 436.808H2092.31C2092.6 436.325 2093.06 435.927 2093.71 435.615C2094.35 435.296 2095.09 435.137 2095.91 435.137C2096.96 435.137 2097.89 435.382 2098.71 435.87C2099.53 436.353 2100.18 437.024 2100.65 437.882C2101.13 438.74 2101.37 439.723 2101.37 440.831C2101.37 442.029 2101.08 443.092 2100.52 444.018C2099.95 444.944 2099.16 445.671 2098.15 446.2C2097.14 446.723 2095.95 446.984 2094.59 446.984Z" fill="white" fill-opacity="0.75"/>
<path d="M2227.16 429.291V446.745H2222.94V433.228H2222.84L2218.94 435.615V431.967L2223.24 429.291H2227.16ZM2238.01 446.984C2237.06 446.984 2236.14 446.831 2235.27 446.524C2234.39 446.211 2233.61 445.717 2232.93 445.041C2232.25 444.359 2231.71 443.467 2231.32 442.365C2230.93 441.257 2230.74 439.907 2230.74 438.316C2230.75 436.879 2230.92 435.589 2231.27 434.447C2231.62 433.299 2232.11 432.325 2232.75 431.524C2233.4 430.723 2234.17 430.112 2235.07 429.691C2235.97 429.265 2236.98 429.052 2238.1 429.052C2239.32 429.052 2240.39 429.291 2241.33 429.768C2242.26 430.24 2243.01 430.876 2243.58 431.677C2244.14 432.473 2244.47 433.359 2244.57 434.336H2240.42C2240.3 433.785 2240.02 433.368 2239.6 433.083C2239.18 432.794 2238.68 432.649 2238.1 432.649C2237.03 432.649 2236.23 433.112 2235.7 434.038C2235.18 434.964 2234.91 436.203 2234.9 437.754H2235.01C2235.25 437.231 2235.59 436.782 2236.04 436.407C2236.49 436.032 2237.01 435.745 2237.58 435.546C2238.17 435.342 2238.79 435.24 2239.44 435.24C2240.49 435.24 2241.41 435.481 2242.21 435.964C2243.01 436.447 2243.64 437.109 2244.1 437.95C2244.55 438.785 2244.78 439.743 2244.77 440.822C2244.78 442.038 2244.49 443.112 2243.92 444.044C2243.34 444.97 2242.55 445.691 2241.53 446.208C2240.52 446.725 2239.35 446.984 2238.01 446.984ZM2237.99 443.745C2238.5 443.745 2238.97 443.623 2239.37 443.379C2239.78 443.135 2240.1 442.802 2240.34 442.382C2240.57 441.961 2240.68 441.487 2240.68 440.958C2240.68 440.424 2240.57 439.95 2240.34 439.535C2240.11 439.12 2239.79 438.791 2239.38 438.546C2238.98 438.302 2238.52 438.18 2237.99 438.18C2237.61 438.18 2237.26 438.251 2236.93 438.393C2236.6 438.535 2236.31 438.734 2236.07 438.99C2235.83 439.24 2235.64 439.535 2235.51 439.876C2235.37 440.211 2235.3 440.575 2235.29 440.967C2235.3 441.484 2235.42 441.953 2235.65 442.373C2235.88 442.794 2236.2 443.129 2236.6 443.379C2237.01 443.623 2237.47 443.745 2237.99 443.745Z" fill="white" fill-opacity="0.25"/>
<path d="M2371.29 429.291V446.745H2367.08V433.228H2366.98L2363.07 435.615V431.967L2367.38 429.291H2371.29ZM2375.89 446.745L2382.93 432.802V432.691H2374.7V429.291H2387.29V432.717L2380.23 446.745H2375.89Z" fill="white" fill-opacity="0.75"/>
<path d="M2513.7 429.291V446.745H2509.49V433.228H2509.39L2505.48 435.615V431.967L2509.79 429.291H2513.7ZM2524.38 446.984C2523.02 446.984 2521.81 446.768 2520.74 446.336C2519.68 445.899 2518.84 445.308 2518.23 444.564C2517.63 443.814 2517.33 442.967 2517.33 442.024C2517.33 441.302 2517.5 440.64 2517.85 440.038C2518.19 439.436 2518.66 438.936 2519.25 438.538C2519.85 438.135 2520.52 437.876 2521.25 437.762V437.626C2520.29 437.45 2519.5 437.004 2518.89 436.288C2518.28 435.572 2517.98 434.734 2517.98 433.774C2517.98 432.865 2518.25 432.055 2518.8 431.345C2519.36 430.635 2520.12 430.075 2521.08 429.666C2522.04 429.257 2523.14 429.052 2524.38 429.052C2525.61 429.052 2526.71 429.257 2527.67 429.666C2528.63 430.075 2529.39 430.635 2529.94 431.345C2530.5 432.055 2530.78 432.865 2530.78 433.774C2530.78 434.74 2530.47 435.581 2529.85 436.296C2529.23 437.007 2528.45 437.45 2527.5 437.626V437.762C2528.23 437.876 2528.89 438.135 2529.48 438.538C2530.08 438.936 2530.55 439.436 2530.9 440.038C2531.25 440.64 2531.43 441.302 2531.43 442.024C2531.43 442.967 2531.12 443.814 2530.51 444.564C2529.91 445.308 2529.07 445.899 2528.01 446.336C2526.95 446.768 2525.74 446.984 2524.38 446.984ZM2524.38 443.993C2524.89 443.993 2525.35 443.896 2525.74 443.703C2526.13 443.504 2526.44 443.228 2526.66 442.876C2526.89 442.524 2527 442.126 2527 441.683C2527 441.228 2526.89 440.825 2526.66 440.473C2526.43 440.12 2526.12 439.845 2525.72 439.646C2525.33 439.441 2524.88 439.339 2524.38 439.339C2523.88 439.339 2523.43 439.441 2523.03 439.646C2522.63 439.845 2522.32 440.12 2522.09 440.473C2521.87 440.825 2521.75 441.228 2521.75 441.683C2521.75 442.126 2521.86 442.524 2522.08 442.876C2522.31 443.223 2522.62 443.495 2523.01 443.694C2523.41 443.893 2523.87 443.993 2524.38 443.993ZM2524.38 436.365C2524.82 436.365 2525.21 436.274 2525.55 436.092C2525.9 435.91 2526.17 435.657 2526.36 435.333C2526.56 435.01 2526.66 434.643 2526.66 434.234C2526.66 433.825 2526.56 433.464 2526.36 433.152C2526.17 432.839 2525.9 432.595 2525.56 432.419C2525.22 432.237 2524.83 432.146 2524.38 432.146C2523.93 432.146 2523.54 432.237 2523.19 432.419C2522.85 432.595 2522.58 432.839 2522.38 433.152C2522.19 433.464 2522.09 433.825 2522.09 434.234C2522.09 434.643 2522.19 435.01 2522.38 435.333C2522.58 435.652 2522.85 435.904 2523.2 436.092C2523.55 436.274 2523.94 436.365 2524.38 436.365Z" fill="white" fill-opacity="0.25"/>
<path d="M2657.03 429.291V446.745H2652.81V433.228H2652.71L2648.81 435.615V431.967L2653.11 429.291H2657.03ZM2667.45 429.052C2668.41 429.052 2669.32 429.208 2670.19 429.521C2671.06 429.828 2671.84 430.319 2672.52 430.995C2673.2 431.666 2673.74 432.549 2674.13 433.646C2674.52 434.743 2674.72 436.081 2674.72 437.66C2674.72 439.115 2674.55 440.419 2674.2 441.572C2673.86 442.72 2673.36 443.697 2672.71 444.504C2672.07 445.311 2671.3 445.927 2670.4 446.353C2669.49 446.774 2668.48 446.984 2667.37 446.984C2666.14 446.984 2665.06 446.748 2664.12 446.277C2663.19 445.799 2662.44 445.157 2661.88 444.35C2661.32 443.544 2660.99 442.64 2660.88 441.64H2665.03C2665.17 442.22 2665.44 442.657 2665.86 442.953C2666.28 443.243 2666.78 443.387 2667.37 443.387C2668.44 443.387 2669.24 442.924 2669.76 441.998C2670.29 441.072 2670.56 439.814 2670.56 438.223H2670.45C2670.21 438.745 2669.86 439.194 2669.42 439.569C2668.97 439.944 2668.46 440.231 2667.87 440.43C2667.29 440.629 2666.67 440.728 2666.02 440.728C2664.98 440.728 2664.05 440.49 2663.25 440.012C2662.46 439.535 2661.83 438.879 2661.38 438.044C2660.93 437.208 2660.7 436.254 2660.7 435.18C2660.69 433.975 2660.97 432.913 2661.54 431.993C2662.11 431.066 2662.9 430.345 2663.92 429.828C2664.93 429.305 2666.11 429.046 2667.45 429.052ZM2667.48 432.291C2666.96 432.291 2666.49 432.413 2666.08 432.657C2665.68 432.902 2665.36 433.231 2665.13 433.646C2664.9 434.061 2664.78 434.527 2664.79 435.044C2664.79 435.561 2664.91 436.027 2665.14 436.441C2665.37 436.856 2665.68 437.186 2666.08 437.43C2666.49 437.674 2666.95 437.796 2667.46 437.796C2667.85 437.796 2668.21 437.725 2668.54 437.583C2668.87 437.441 2669.15 437.245 2669.4 436.995C2669.64 436.74 2669.83 436.444 2669.97 436.109C2670.11 435.774 2670.18 435.416 2670.17 435.035C2670.17 434.529 2670.05 434.069 2669.82 433.654C2669.58 433.24 2669.26 432.91 2668.85 432.666C2668.45 432.416 2667.99 432.291 2667.48 432.291Z" fill="white" fill-opacity="0.75"/>
<path d="M2790.12 446.745V443.711L2796.49 438.137C2796.97 437.706 2797.37 437.311 2797.71 436.953C2798.04 436.589 2798.3 436.225 2798.48 435.862C2798.65 435.493 2798.74 435.092 2798.74 434.66C2798.74 434.177 2798.63 433.765 2798.42 433.424C2798.21 433.078 2797.92 432.811 2797.55 432.623C2797.19 432.436 2796.76 432.342 2796.28 432.342C2795.8 432.342 2795.38 432.441 2795.02 432.64C2794.65 432.833 2794.37 433.115 2794.16 433.484C2793.96 433.853 2793.86 434.302 2793.86 434.831H2789.87C2789.87 433.643 2790.13 432.618 2790.67 431.754C2791.2 430.89 2791.95 430.225 2792.92 429.76C2793.89 429.288 2795.02 429.052 2796.3 429.052C2797.63 429.052 2798.78 429.274 2799.75 429.717C2800.73 430.16 2801.49 430.779 2802.02 431.575C2802.56 432.365 2802.83 433.282 2802.83 434.328C2802.83 434.993 2802.7 435.652 2802.43 436.305C2802.16 436.958 2801.68 437.68 2800.99 438.47C2800.3 439.26 2799.32 440.206 2798.06 441.308L2795.97 443.234V443.345H2803.04V446.745H2790.12ZM2812.65 447.171C2811.12 447.171 2809.81 446.811 2808.71 446.089C2807.61 445.362 2806.76 444.319 2806.16 442.961C2805.56 441.598 2805.27 439.958 2805.27 438.044C2805.28 436.129 2805.58 434.504 2806.17 433.169C2806.77 431.828 2807.61 430.808 2808.71 430.109C2809.81 429.404 2811.12 429.052 2812.65 429.052C2814.17 429.052 2815.48 429.404 2816.58 430.109C2817.69 430.808 2818.54 431.828 2819.14 433.169C2819.74 434.51 2820.03 436.135 2820.03 438.044C2820.03 439.964 2819.73 441.606 2819.13 442.97C2818.54 444.333 2817.69 445.376 2816.58 446.098C2815.49 446.814 2814.17 447.171 2812.65 447.171ZM2812.65 443.72C2813.56 443.72 2814.29 443.257 2814.85 442.331C2815.42 441.399 2815.69 439.97 2815.69 438.044C2815.69 436.782 2815.56 435.743 2815.31 434.924C2815.05 434.1 2814.69 433.487 2814.24 433.083C2813.79 432.68 2813.25 432.478 2812.65 432.478C2811.74 432.478 2811.01 432.936 2810.46 433.85C2809.9 434.76 2809.62 436.157 2809.61 438.044C2809.61 439.322 2809.73 440.382 2809.98 441.223C2810.23 442.064 2810.59 442.691 2811.05 443.106C2811.51 443.515 2812.04 443.72 2812.65 443.72Z" fill="white" fill-opacity="0.25"/>
<path d="M2935.96 446.745V443.711L2942.32 438.137C2942.8 437.706 2943.21 437.311 2943.54 436.953C2943.88 436.589 2944.13 436.225 2944.31 435.862C2944.48 435.493 2944.57 435.092 2944.57 434.66C2944.57 434.177 2944.47 433.765 2944.26 433.424C2944.05 433.078 2943.76 432.811 2943.39 432.623C2943.02 432.436 2942.6 432.342 2942.12 432.342C2941.64 432.342 2941.21 432.441 2940.85 432.64C2940.48 432.833 2940.2 433.115 2940 433.484C2939.8 433.853 2939.7 434.302 2939.7 434.831H2935.7C2935.7 433.643 2935.97 432.618 2936.5 431.754C2937.04 430.89 2937.79 430.225 2938.75 429.76C2939.72 429.288 2940.85 429.052 2942.14 429.052C2943.46 429.052 2944.61 429.274 2945.59 429.717C2946.56 430.16 2947.32 430.779 2947.85 431.575C2948.39 432.365 2948.66 433.282 2948.66 434.328C2948.66 434.993 2948.53 435.652 2948.26 436.305C2948 436.958 2947.52 437.68 2946.82 438.47C2946.14 439.26 2945.16 440.206 2943.89 441.308L2941.8 443.234V443.345H2948.88V446.745H2935.96ZM2959.33 429.291V446.745H2955.12V433.228H2955.02L2951.12 435.615V431.967L2955.42 429.291H2959.33Z" fill="white" fill-opacity="0.75"/>
<path d="M3077.56 446.745V443.711L3083.93 438.137C3084.4 437.706 3084.81 437.311 3085.14 436.953C3085.48 436.589 3085.73 436.225 3085.91 435.862C3086.09 435.493 3086.18 435.092 3086.18 434.66C3086.18 434.177 3086.07 433.765 3085.86 433.424C3085.65 433.078 3085.36 432.811 3084.99 432.623C3084.62 432.436 3084.2 432.342 3083.72 432.342C3083.24 432.342 3082.81 432.441 3082.45 432.64C3082.09 432.833 3081.8 433.115 3081.6 433.484C3081.4 433.853 3081.3 434.302 3081.3 434.831H3077.3C3077.3 433.643 3077.57 432.618 3078.1 431.754C3078.64 430.89 3079.39 430.225 3080.35 429.76C3081.33 429.288 3082.45 429.052 3083.74 429.052C3085.06 429.052 3086.21 429.274 3087.19 429.717C3088.17 430.16 3088.92 430.779 3089.46 431.575C3090 432.365 3090.27 433.282 3090.27 434.328C3090.27 434.993 3090.13 435.652 3089.87 436.305C3089.6 436.958 3089.12 437.68 3088.43 438.47C3087.74 439.26 3086.76 440.206 3085.49 441.308L3083.41 443.234V443.345H3090.48V446.745H3077.56ZM3092.86 446.745V443.711L3099.23 438.137C3099.71 437.706 3100.11 437.311 3100.45 436.953C3100.78 436.589 3101.04 436.225 3101.22 435.862C3101.39 435.493 3101.48 435.092 3101.48 434.66C3101.48 434.177 3101.37 433.765 3101.16 433.424C3100.95 433.078 3100.66 432.811 3100.3 432.623C3099.93 432.436 3099.5 432.342 3099.03 432.342C3098.54 432.342 3098.12 432.441 3097.76 432.64C3097.39 432.833 3097.11 433.115 3096.9 433.484C3096.7 433.853 3096.6 434.302 3096.6 434.831H3092.61C3092.61 433.643 3092.87 432.618 3093.41 431.754C3093.94 430.89 3094.69 430.225 3095.66 429.76C3096.63 429.288 3097.76 429.052 3099.04 429.052C3100.37 429.052 3101.52 429.274 3102.49 429.717C3103.47 430.16 3104.23 430.779 3104.76 431.575C3105.3 432.365 3105.57 433.282 3105.57 434.328C3105.57 434.993 3105.44 435.652 3105.17 436.305C3104.9 436.958 3104.42 437.68 3103.73 438.47C3103.04 439.26 3102.06 440.206 3100.8 441.308L3098.71 443.234V443.345H3105.78V446.745H3092.86Z" fill="white" fill-opacity="0.25"/>
<path d="M3220.5 446.745V443.711L3226.86 438.137C3227.34 437.706 3227.75 437.311 3228.08 436.953C3228.42 436.589 3228.67 436.225 3228.85 435.862C3229.03 435.493 3229.11 435.092 3229.11 434.66C3229.11 434.177 3229.01 433.765 3228.8 433.424C3228.59 433.078 3228.3 432.811 3227.93 432.623C3227.56 432.436 3227.14 432.342 3226.66 432.342C3226.18 432.342 3225.75 432.441 3225.39 432.64C3225.03 432.833 3224.74 433.115 3224.54 433.484C3224.34 433.853 3224.24 434.302 3224.24 434.831H3220.24C3220.24 433.643 3220.51 432.618 3221.04 431.754C3221.58 430.89 3222.33 430.225 3223.29 429.76C3224.26 429.288 3225.39 429.052 3226.68 429.052C3228 429.052 3229.15 429.274 3230.13 429.717C3231.11 430.16 3231.86 430.779 3232.39 431.575C3232.93 432.365 3233.2 433.282 3233.2 434.328C3233.2 434.993 3233.07 435.652 3232.8 436.305C3232.54 436.958 3232.06 437.68 3231.36 438.47C3230.68 439.26 3229.7 440.206 3228.43 441.308L3226.34 443.234V443.345H3233.42V446.745H3220.5ZM3242.44 446.984C3241.11 446.984 3239.93 446.757 3238.9 446.302C3237.88 445.842 3237.07 445.208 3236.48 444.402C3235.89 443.595 3235.59 442.666 3235.58 441.615H3239.82C3239.84 441.995 3239.96 442.333 3240.19 442.629C3240.42 442.919 3240.73 443.146 3241.12 443.311C3241.51 443.475 3241.96 443.558 3242.46 443.558C3242.96 443.558 3243.4 443.47 3243.78 443.294C3244.17 443.112 3244.47 442.865 3244.68 442.552C3244.9 442.234 3245 441.87 3245 441.461C3245 441.052 3244.89 440.689 3244.65 440.37C3244.41 440.052 3244.07 439.805 3243.63 439.629C3243.2 439.453 3242.69 439.365 3242.1 439.365H3240.4V436.365H3242.1C3242.62 436.365 3243.07 436.279 3243.46 436.109C3243.86 435.939 3244.17 435.7 3244.39 435.393C3244.61 435.081 3244.72 434.723 3244.72 434.319C3244.72 433.927 3244.63 433.583 3244.44 433.288C3244.25 432.987 3243.98 432.754 3243.64 432.589C3243.31 432.424 3242.92 432.342 3242.48 432.342C3242.01 432.342 3241.59 432.424 3241.21 432.589C3240.83 432.754 3240.53 432.987 3240.31 433.288C3240.09 433.589 3239.97 433.939 3239.96 434.336H3235.93C3235.94 433.296 3236.23 432.382 3236.8 431.592C3237.37 430.796 3238.14 430.174 3239.12 429.725C3240.1 429.277 3241.22 429.052 3242.48 429.052C3243.73 429.052 3244.82 429.271 3245.77 429.708C3246.72 430.146 3247.46 430.743 3247.99 431.498C3248.52 432.248 3248.78 433.098 3248.78 434.046C3248.79 435.029 3248.47 435.839 3247.82 436.475C3247.18 437.112 3246.35 437.504 3245.34 437.652V437.788C3246.69 437.947 3247.71 438.385 3248.4 439.1C3249.09 439.816 3249.44 440.711 3249.43 441.785C3249.43 442.796 3249.13 443.694 3248.53 444.478C3247.94 445.257 3247.12 445.87 3246.06 446.319C3245.01 446.762 3243.8 446.984 3242.44 446.984Z" fill="white" fill-opacity="0.25"/>
<path d="M3363.71 446.745V443.711L3370.07 438.137C3370.55 437.706 3370.96 437.311 3371.29 436.953C3371.63 436.589 3371.88 436.225 3372.06 435.862C3372.23 435.493 3372.32 435.092 3372.32 434.66C3372.32 434.177 3372.22 433.765 3372.01 433.424C3371.8 433.078 3371.51 432.811 3371.14 432.623C3370.77 432.436 3370.34 432.342 3369.87 432.342C3369.38 432.342 3368.96 432.441 3368.6 432.64C3368.23 432.833 3367.95 433.115 3367.74 433.484C3367.55 433.853 3367.45 434.302 3367.45 434.831H3363.45C3363.45 433.643 3363.72 432.618 3364.25 431.754C3364.78 430.89 3365.53 430.225 3366.5 429.76C3367.47 429.288 3368.6 429.052 3369.88 429.052C3371.21 429.052 3372.36 429.274 3373.34 429.717C3374.31 430.16 3375.07 430.779 3375.6 431.575C3376.14 432.365 3376.41 433.282 3376.41 434.328C3376.41 434.993 3376.28 435.652 3376.01 436.305C3375.74 436.958 3375.26 437.68 3374.57 438.47C3373.88 439.26 3372.91 440.206 3371.64 441.308L3369.55 443.234V443.345H3376.63V446.745H3363.71ZM3378.42 443.848V440.558L3385.57 429.291H3388.5V433.757H3386.8L3382.61 440.387V440.524H3392.97V443.848H3378.42ZM3386.85 446.745V442.842L3386.94 441.402V429.291H3390.88V446.745H3386.85Z" fill="white" fill-opacity="0.75"/>
<line x1="8.42322" y1="0.293457" x2="8.42322" y2="378.971" stroke="#BFBFBF" stroke-width="15"/>
<path d="M151.907 375.901L151.907 3.36406" stroke="#808080" stroke-width="6" stroke-linecap="round"/>
<path d="M294.706 375.901L294.706 3.36406" stroke="#808080" stroke-width="6" stroke-linecap="round"/>
<path d="M437.506 375.901L437.506 3.36406" stroke="#808080" stroke-width="6" stroke-linecap="round"/>
<path d="M580.305 375.901L580.305 3.36406" stroke="#808080" stroke-width="6" stroke-linecap="round"/>
<path d="M723.105 375.901L723.105 3.36406" stroke="#808080" stroke-width="6" stroke-linecap="round"/>
<path d="M865.904 375.901L865.904 3.36406" stroke="#808080" stroke-width="6" stroke-linecap="round"/>
<path d="M1008.7 375.901L1008.7 3.36406" stroke="#808080" stroke-width="6" stroke-linecap="round"/>
<path d="M1151.5 375.901L1151.5 3.36406" stroke="#808080" stroke-width="6" stroke-linecap="round"/>
<path d="M1294.3 375.901L1294.3 3.36406" stroke="#808080" stroke-width="6" stroke-linecap="round"/>
<path d="M1437.1 375.901L1437.1 3.36406" stroke="#808080" stroke-width="6" stroke-linecap="round"/>
<path d="M1579.9 375.901L1579.9 3.36406" stroke="#808080" stroke-width="6" stroke-linecap="round"/>
<path d="M1722.7 375.901L1722.7 3.36406" stroke="#808080" stroke-width="6" stroke-linecap="round"/>
<path d="M1722.7 375.901L1722.7 3.36406" stroke="#3EA7C1" stroke-opacity="0.2" stroke-width="6" stroke-linecap="round"/>
<path d="M1865.5 375.901L1865.5 3.36406" stroke="#808080" stroke-width="6" stroke-linecap="round"/>
<path d="M1865.5 375.901L1865.5 3.36406" stroke="#3EA7C1" stroke-opacity="0.2" stroke-width="6" stroke-linecap="round"/>
<path d="M2008.3 375.901L2008.3 3.36406" stroke="#808080" stroke-width="6" stroke-linecap="round"/>
<path d="M2008.3 375.901L2008.3 3.36406" stroke="#3EA7C1" stroke-opacity="0.2" stroke-width="6" stroke-linecap="round"/>
<path d="M2151.1 375.901L2151.1 3.36406" stroke="#808080" stroke-width="6" stroke-linecap="round"/>
<path d="M2151.1 375.901L2151.1 3.36406" stroke="#3EA7C1" stroke-opacity="0.2" stroke-width="6" stroke-linecap="round"/>
<path d="M2293.9 375.901L2293.9 3.36406" stroke="#808080" stroke-width="6" stroke-linecap="round"/>
<path d="M2293.9 375.901L2293.9 3.36406" stroke="#3EA7C1" stroke-opacity="0.2" stroke-width="6" stroke-linecap="round"/>
<path d="M2436.7 375.901L2436.7 3.36406" stroke="#808080" stroke-width="6" stroke-linecap="round"/>
<path d="M2436.7 375.901L2436.7 3.36406" stroke="#3EA7C1" stroke-opacity="0.2" stroke-width="6" stroke-linecap="round"/>
<path d="M2579.5 375.901L2579.5 3.36406" stroke="#808080" stroke-width="6" stroke-linecap="round"/>
<path d="M2579.5 375.901L2579.5 3.36406" stroke="#3EA7C1" stroke-opacity="0.2" stroke-width="6" stroke-linecap="round"/>
<path d="M2722.3 375.901L2722.3 3.36406" stroke="#808080" stroke-width="6" stroke-linecap="round"/>
<path d="M2722.3 375.901L2722.3 3.36406" stroke="#3EA7C1" stroke-opacity="0.2" stroke-width="6" stroke-linecap="round"/>
<path d="M2865.1 375.901L2865.1 3.36406" stroke="#808080" stroke-width="6" stroke-linecap="round"/>
<path d="M2865.1 375.901L2865.1 3.36406" stroke="#3EA7C1" stroke-opacity="0.2" stroke-width="6" stroke-linecap="round"/>
<path d="M3007.9 375.901L3007.9 3.36406" stroke="#808080" stroke-width="6" stroke-linecap="round"/>
<path d="M3007.9 375.901L3007.9 3.36406" stroke="#3EA7C1" stroke-opacity="0.2" stroke-width="6" stroke-linecap="round"/>
<path d="M3150.7 375.901L3150.7 3.36406" stroke="#808080" stroke-width="6" stroke-linecap="round"/>
<path d="M3150.7 375.901L3150.7 3.36406" stroke="#3EA7C1" stroke-opacity="0.2" stroke-width="6" stroke-linecap="round"/>
<path d="M3293.5 375.901L3293.5 3.36406" stroke="#808080" stroke-width="6" stroke-linecap="round"/>
<path d="M3293.5 375.901L3293.5 3.36406" stroke="#3EA7C1" stroke-opacity="0.2" stroke-width="6" stroke-linecap="round"/>
</svg>
